<svg id="OUTLINES" xmlns="http://www.w3.org/2000/svg" xmlns:xlink="http://www.w3.org/1999/xlink" viewBox="0 0 80.96 40.48"><defs><style>.cls-1{fill:url(#linear-gradient);}.cls-2{fill:#fff;}</style><linearGradient id="linear-gradient" x1="393.57" y1="282.22" x2="393.57" y2="241.74" gradientUnits="userSpaceOnUse"><stop offset="0" stop-color="#005a83"/><stop offset="1" stop-color="#2098d4"/></linearGradient></defs><title>LVAlogo</title><path class="cls-1" d="M393.57,241.74c-22.36,0-40.48,9.06-40.48,20.24s18.12,20.24,40.48,20.24,40.48-9.06,40.48-20.24S415.93,241.74,393.57,241.74Z" transform="translate(-353.09 -241.74)"/><path class="cls-2" d="M378.21,275.95h-0.37l1.42-3.28h0.32l1.41,3.28h-0.37l-0.36-.86h-1.69Zm0.48-1.17h1.44L379.41,273Z" transform="translate(-353.09 -241.74)"/><path class="cls-2" d="M385.65,275.46h0v-2.79H386v3.28h-0.42l-1.91-2.82h0v2.82h-0.33v-3.28h0.42Z" transform="translate(-353.09 -241.74)"/><path class="cls-2" d="M388.7,275.95h-0.37l1.42-3.28h0.32l1.41,3.28h-0.37l-0.36-.86h-1.69Zm0.48-1.17h1.44L389.9,273Z" transform="translate(-353.09 -241.74)"/><path class="cls-2" d="M393.82,272.67h0.33v1.42h1.79v-1.42h0.33v3.28h-0.33v-1.55h-1.79v1.55h-0.33v-3.28Z" transform="translate(-353.09 -241.74)"/><path class="cls-2" d="M399.33,275.65h1.75v0.3H399v-3.28h2V273h-1.7v1.13h1.59v0.29h-1.59v1.26Z" transform="translate(-353.09 -241.74)"/><path class="cls-2" d="M403.93,275.95h-0.33v-3.28h0.33v3.28Z" transform="translate(-353.09 -241.74)"/><path class="cls-2" d="M408.27,275.38h0l1.1-2.71h0.51v3.28h-0.33V273.1h0l-1.19,2.85h-0.18L407,273.1h0v2.85h-0.33v-3.28h0.51Z" transform="translate(-353.09 -241.74)"/><polygon class="cls-2" points="15.55 28.09 7.94 28.09 7.94 9.46 10.49 9.46 10.49 25.12 15.55 25.12 15.55 28.09"/><polygon class="cls-2" points="49 28.09 47 28.09 47 17.46 49 13.34 49 28.09"/><polygon class="cls-2" points="58.27 13.18 52.15 13.18 52.16 10.85 58.27 10.85 58.27 13.18"/><polygon class="cls-2" points="61.11 28.1 52.65 19.02 52.65 28.09 50.64 28.09 50.64 13.34 59.09 22.46 59.09 13.34 61.11 13.34 61.11 28.1"/><path class="cls-2" d="M401.58,252.9l-8,16.06a1.47,1.47,0,0,1-1.32.82h-4.41a1.47,1.47,0,0,1-1.32-.82l-8-16.06v-3.13h0.82a1.47,1.47,0,0,1,1.32.82l0.51,1,7.66,15.1,0.06,0.12h2.46l0.06-.13,8.05-16.1a1.47,1.47,0,0,1,1.32-.82h0.82v3.13Z" transform="translate(-353.09 -241.74)"/><path class="cls-2" d="M390,261.41a3.37,3.37,0,1,1,3.37-3.37,3.37,3.37,0,0,1-3.37,3.37" transform="translate(-353.09 -241.74)"/><polygon class="cls-2" points="30.25 28.09 27.75 28.09 23.32 18.7 18.93 28.09 16.45 28.09 23.32 13.46 30.25 28.09"/><polygon class="cls-2" points="75.84 28.09 73.34 28.09 68.91 18.7 64.53 28.09 62.04 28.09 68.91 13.46 75.84 28.09"/></svg>